External Loads File
version=1
nRows=54
nColumns=13
Range=5.000000e-03-10 seconds
endheader
time 	forceRightX 	forceRightY 	forceRightZ 	pointRightX 	pointRightY 	pointRightZ 	forceLeftX 	forceLeftY 	forceLeftZ 	pointLeftX 	pointLeftY 	pointLeftZ 		
7.505000 -64.991875 227.608319 -0.000000 0.336442 0.475213 -0.109667 173.754029 158.586682 -0.000000 0.152566 0.175186 -0.344189
7.510000 -68.501340 257.042735 -0.000000 0.342463 0.468740 -0.109549 165.387141 142.070705 -0.000000 0.144967 0.181107 -0.344085
7.515000 -73.413493 290.247843 -0.000000 0.348123 0.461601 -0.109445 157.232160 127.563092 -0.000000 0.137487 0.187631 -0.343430
7.520000 -80.043490 327.096449 -0.000000 0.353446 0.453668 -0.109216 149.785032 115.148140 -0.000000 0.130598 0.194483 -0.343389
7.525000 -88.136592 366.981056 -0.000000 0.358695 0.445255 -0.109040 143.595279 104.505250 -0.000000 0.124124 0.201785 -0.343364
7.530000 -96.512981 408.905892 -0.000000 0.364031 0.435517 -0.108916 139.118636 95.024575 -0.000000 0.118136 0.209686 -0.343425
7.535000 -106.873674 450.797174 -0.000000 0.368741 0.426116 -0.108781 135.831311 87.124922 -0.000000 0.112637 0.217998 -0.343614
7.540000 -118.093435 491.191291 -0.000000 0.373604 0.416541 -0.108898 133.725800 80.195241 -0.000000 0.107724 0.226519 -0.343720
7.545000 -130.214218 528.652636 -0.000000 0.377588 0.406652 -0.109045 132.336578 74.066619 -0.000000 0.103446 0.235491 -0.343895
7.550000 -142.993073 562.384050 -0.000000 0.381263 0.396524 -0.109105 131.186695 68.488429 -0.000000 0.099818 0.244497 -0.344048
7.555000 -155.680966 592.364435 -0.000000 0.384742 0.386225 -0.109183 129.877713 63.110752 -0.000000 0.096788 0.253828 -0.344219
7.560000 -168.233160 618.941196 -0.000000 0.387746 0.375681 -0.109209 128.020154 57.807452 -0.000000 0.094418 0.263393 -0.344425
7.565000 -180.909253 642.709802 -0.000000 0.390162 0.365108 -0.109233 125.374431 52.602225 -0.000000 0.092703 0.273083 -0.344652
7.570000 -192.429135 664.832918 -0.000000 0.392264 0.354329 -0.108936 122.024916 47.330497 -0.000000 0.091545 0.283026 -0.344759
7.575000 -202.900655 686.082724 -0.000000 0.393666 0.343401 -0.108757 118.080317 42.195034 -0.000000 0.091025 0.293060 -0.344970
7.580000 -211.885963 707.237159 -0.000000 0.394801 0.332344 -0.108988 113.724143 37.314716 -0.000000 0.091606 0.303075 -0.345994
7.585000 -218.143483 729.049059 -0.000000 0.395317 0.321326 -0.108750 109.081951 32.691588 -0.000000 0.091945 0.313390 -0.345239
7.590000 -222.139378 751.439453 -0.000000 0.395144 0.310283 -0.108752 104.096989 28.601589 -0.000000 0.093304 0.323526 -0.345521
7.595000 -222.486078 774.572866 -0.000000 0.394268 0.299249 -0.108521 98.808457 25.020482 -0.000000 0.095230 0.333739 -0.345531
7.600000 -219.638044 797.785448 -0.000000 0.392875 0.288441 -0.108273 93.275359 22.130926 -0.000000 0.097685 0.343849 -0.345600
7.605000 -212.309898 820.630265 -0.000000 0.390868 0.277720 -0.107914 87.665180 19.841566 -0.000000 0.100672 0.354006 -0.345667
7.610000 -201.392129 841.822255 -0.000000 0.388339 0.267324 -0.107640 82.040340 18.266082 -0.000000 0.104272 0.363942 -0.345751
7.615000 -185.434466 860.496725 -0.000000 0.385278 0.257124 -0.107642 76.437375 17.232794 -0.000000 0.108430 0.373999 -0.345813
7.620000 -165.619498 875.077493 -0.000000 0.381839 0.247181 -0.107324 70.775182 16.790921 -0.000000 0.113092 0.383913 -0.345797
7.625000 -142.176032 884.262409 -0.000000 0.377832 0.237581 -0.107249 64.963912 16.850635 -0.000000 0.118262 0.393721 -0.345904
7.630000 -116.060556 886.747031 -0.000000 0.373338 0.228310 -0.107343 58.885425 17.377844 -0.000000 0.123886 0.403303 -0.345722
7.635000 -88.585049 881.441981 -0.000000 0.368604 0.219425 -0.107438 52.420354 18.400724 -0.000000 0.129985 0.412624 -0.346320
7.640000 -60.462142 867.674153 -0.000000 0.363379 0.211029 -0.107195 45.521662 19.945203 -0.000000 0.136430 0.421737 -0.346146
7.645000 -32.746467 845.159964 -0.000000 0.357780 0.203017 -0.106971 38.250829 22.046136 -0.000000 0.143160 0.430603 -0.346115
7.650000 -5.864766 814.153551 -0.000000 0.351837 0.195531 -0.106707 30.781517 24.670218 -0.000000 0.150659 0.439096 -0.346322
7.655000 18.571894 775.394202 -0.000000 0.345568 0.188436 -0.106502 23.275383 27.807733 -0.000000 0.158345 0.447214 -0.346507
7.660000 39.112069 730.137692 -0.000000 0.338994 0.181829 -0.106185 15.841946 31.425278 -0.000000 0.165954 0.454734 -0.346433
7.665000 56.428534 679.874323 -0.000000 0.332114 0.175695 -0.105890 8.592299 35.480400 -0.000000 0.173772 0.461769 -0.345944
7.670000 72.055002 626.091177 -0.000000 0.324856 0.169973 -0.105510 1.635205 40.044831 -0.000000 0.182645 0.468060 -0.346154
7.675000 82.407122 570.949999 -0.000000 0.317244 0.164864 -0.105153 -5.289907 45.272105 -0.000000 0.190058 0.474333 -0.345909
7.680000 91.929452 515.712532 -0.000000 0.309202 0.160439 -0.104872 -11.919691 51.285980 -0.000000 0.198703 0.479658 -0.345944
7.685000 99.854670 462.179773 -0.000000 0.300677 0.156753 -0.104619 -18.308863 58.156588 -0.000000 0.207493 0.484342 -0.345981
7.690000 107.241835 411.730780 -0.000000 0.291605 0.153687 -0.104422 -24.368480 65.916983 -0.000000 0.216465 0.488359 -0.345700
7.695000 115.014850 365.413260 -0.000000 0.282013 0.151377 -0.104334 -30.006012 74.598832 -0.000000 0.225694 0.491688 -0.345673
7.700000 123.487871 323.952100 -0.000000 0.271920 0.149980 -0.104181 -35.249404 84.173627 -0.000000 0.234654 0.494525 -0.345871
7.705000 133.525039 287.256686 -0.000000 0.261341 0.149281 -0.104106 -40.004538 94.614810 -0.000000 0.243613 0.496574 -0.345882
7.710000 144.908316 255.001004 -0.000000 0.250546 0.149429 -0.104106 -44.423068 105.766398 -0.000000 0.252375 0.497995 -0.346415
7.715000 157.334507 226.421757 -0.000000 0.239563 0.150157 -0.104182 -48.644720 117.548558 -0.000000 0.260966 0.498669 -0.346083
7.720000 169.898965 200.759758 -0.000000 0.228741 0.151661 -0.104229 -52.924715 130.006318 -0.000000 0.269490 0.498328 -0.346455
7.725000 181.240679 177.532505 -0.000000 0.218293 0.153647 -0.104268 -57.682963 143.328844 -0.000000 0.277625 0.497453 -0.346636
7.730000 190.434675 156.026115 -0.000000 0.208201 0.156352 -0.104385 -63.057778 157.991419 -0.000000 0.285438 0.495804 -0.346882
7.735000 196.548088 135.857912 -0.000000 0.198635 0.159432 -0.104489 -69.392337 174.452869 -0.000000 0.292808 0.493468 -0.347193
7.740000 199.274158 116.391825 -0.000000 0.189499 0.163164 -0.104575 -76.809015 193.198429 -0.000000 0.299768 0.490380 -0.347461
7.745000 198.589164 97.227470 -0.000000 0.180807 0.167487 -0.104713 -85.609056 214.506787 -0.000000 0.306373 0.486741 -0.347762
7.750000 194.849741 78.158888 -0.000000 0.172520 0.172398 -0.104720 -96.199326 238.464564 -0.000000 0.312647 0.482683 -0.348080
7.755000 188.762083 58.991855 -0.000000 0.164380 0.177904 -0.104547 -108.696894 265.090533 -0.000000 0.318590 0.477690 -0.348364
7.760000 180.998664 40.153259 -0.000000 0.156740 0.183715 -0.104425 -123.518532 294.043899 -0.000000 0.324419 0.471597 -0.348632
7.765000 172.307400 22.016484 -0.000000 0.149344 0.190199 -0.104452 -140.425740 324.973743 -0.000000 0.330307 0.464817 -0.348908
7.770000 163.250980 5.559836 -0.000000 0.142344 0.197146 -0.104392 -159.719400 356.967107 -0.000000 0.336000 0.457603 -0.349163
